PathFileType	4	(X/Y/Z)	C:\Users\Balu\Nextcloud\Documents\MA\Daten\C3D\P03\2016 - pre\Static01\marker_experimental.trc
DataRate	CameraRate	NumFrames	NumMarkers	Units	OrigDataRate	OrigDataStartFrame	OrigNumFrames
150.000000	150.000000	4	104	mm	150.000000	37	150
Frame#	Time	LFHD			LBHD			RFHD			RBHD			C7			T10			CLAV			STRN			RBAK			LSHO			LUPA			LELB			LFRA			LWRB			LWRA			LFIN			RSHO			RUPA			RELB			RFRA			RWRB			RWRA			RFIN			SACR			LASI			RASI			LT1			LT2			LT3			LS1			LS2			LS3			LHEE			LTOE			RT1			RT2			RT3			RS1			RS2			RS3			RHEE			RTOE			LKNE			LKNM			LANK			LANM			RKNM			RKNE			RANM			RANK			SACO			SACA			SACL			SACP			LKJC			RKJC			LAJC			RAJC			LMMA			RMMA			LTHI			RTHI			LTIB			RTIB			funktRKJC			funktLKJC			funktRHIP			funktLHIP			LHJC			RHJC			LPelvisAngles			RPelvisAngles			LFootProgressAngles			RFootProgressAngles			LHipAngles			RHipAngles			LKneeAngles			RKneeAngles			LAnkleAngles			RAnkleAngles			LFFootAngles			RFFootAngles			LAbsAnkleAngle			RAbsAnkleAngle			RNeckAngles			LNeckAngles			RSpineAngles			LSpineAngles			LShoulderAngles			LElbowAngles			LWristAngles			RShoulderAngles			RElbowAngles			RWristAngles			RThoraxAngles			LThoraxAngles			RHeadAngles			LHeadAngles			LNormalisedGRF			RNormalisedGRF			LGroundReactionForce			RGroundReactionForce			LGRF			RGRF			
		X1	Y1	Z1	X2	Y2	Z2	X3	Y3	Z3	X4	Y4	Z4	X5	Y5	Z5	X6	Y6	Z6	X7	Y7	Z7	X8	Y8	Z8	X9	Y9	Z9	X10	Y10	Z10	X11	Y11	Z11	X12	Y12	Z12	X13	Y13	Z13	X14	Y14	Z14	X15	Y15	Z15	X16	Y16	Z16	X17	Y17	Z17	X18	Y18	Z18	X19	Y19	Z19	X20	Y20	Z20	X21	Y21	Z21	X22	Y22	Z22	X23	Y23	Z23	X24	Y24	Z24	X25	Y25	Z25	X26	Y26	Z26	X27	Y27	Z27	X28	Y28	Z28	X29	Y29	Z29	X30	Y30	Z30	X31	Y31	Z31	X32	Y32	Z32	X33	Y33	Z33	X34	Y34	Z34	X35	Y35	Z35	X36	Y36	Z36	X37	Y37	Z37	X38	Y38	Z38	X39	Y39	Z39	X40	Y40	Z40	X41	Y41	Z41	X42	Y42	Z42	X43	Y43	Z43	X44	Y44	Z44	X45	Y45	Z45	X46	Y46	Z46	X47	Y47	Z47	X48	Y48	Z48	X49	Y49	Z49	X50	Y50	Z50	X51	Y51	Z51	X52	Y52	Z52	X53	Y53	Z53	X54	Y54	Z54	X55	Y55	Z55	X56	Y56	Z56	X57	Y57	Z57	X58	Y58	Z58	X59	Y59	Z59	X60	Y60	Z60	X61	Y61	Z61	X62	Y62	Z62	X63	Y63	Z63	X64	Y64	Z64	X65	Y65	Z65	X66	Y66	Z66	X67	Y67	Z67	X68	Y68	Z68	X69	Y69	Z69	X70	Y70	Z70	X71	Y71	Z71	X72	Y72	Z72	X73	Y73	Z73	X74	Y74	Z74	X75	Y75	Z75	X76	Y76	Z76	X77	Y77	Z77	X78	Y78	Z78	X79	Y79	Z79	X80	Y80	Z80	X81	Y81	Z81	X82	Y82	Z82	X83	Y83	Z83	X84	Y84	Z84	X85	Y85	Z85	X86	Y86	Z86	X87	Y87	Z87	X88	Y88	Z88	X89	Y89	Z89	X90	Y90	Z90	X91	Y91	Z91	X92	Y92	Z92	X93	Y93	Z93	X94	Y94	Z94	X95	Y95	Z95	X96	Y96	Z96	X97	Y97	Z97	X98	Y98	Z98	X99	Y99	Z99	X100	Y100	Z100	X101	Y101	Z101	X102	Y102	Z102	X103	Y103	Z103	X104	Y104	Z104	

38	0.2466666666666667	-1131.821411132812	1441.050048828125	-382.9922790527343	-992.8502807617188	1420.826904296875	-362.9796142578124	-1139.066162109375	1441.815673828125	-498.963165283203	-987.0325317382812	1420.878173828125	-511.8702087402343	-963.6906127929688	1274.475219726562	-443.1506042480468	-914.524658203125	1095.1884765625	-445.1829223632812	-1094.669311523438	1213.159912109375	-427.1564636230468	-1127.30712890625	1160.300415039062	-422.6018981933593	-933.2529296875	1177.685424804688	-542.1868286132811	-1036.54541015625	1263.148803710938	-311.2173461914062	-975.4920043945312	1045.661254882812	-218.398696899414	-965.7627563476562	972.0210571289062	-190.2879638671874	-980.5992431640625	889.4794311523438	-146.4566650390624	-1024.968383789062	769.3889770507812	-90.64493560791011	-1082.920532226562	775.6375732421875	-124.8399124145507	-1112.06787109375	717.8494262695312	-78.47843170166011	-1061.155029296875	1252.028198242188	-559.4121704101561	-1053.065551757812	1078.371948242188	-649.5021972656249	-1031.777587890625	959.8826293945312	-703.7749633789061	-1092.876831054688	831.7699584960938	-757.25	-1105.286254882812	751.7832641601562	-777.5667114257812	-1148.21875	748.1130981445312	-725.6994018554688	-1189.863159179688	701.7970581054688	-771.7603149414062	-916.281494140625	875.6781005859375	-430.4170837402343	-1071.89697265625	870.7708740234375	-278.2168273925781	-1124.898193359375	879.2377319335938	-520.9281616210938	-1127.99365234375	586.1336669921875	-243.9123229980468	-1079.067504882812	474.4751281738281	-231.994155883789	-1202.903686523438	531.7084350585938	-277.1954040527343	-1033.18798828125	217.1883087158203	-282.7607727050781	-950.3631591796875	148.3159790039063	-342.052490234375	-1062.4189453125	131.8752136230469	-254.4920959472656	-973.6219482421875	41.74505615234377	-367.7147521972656	-1083.31591796875	41.36053466796876	-262.3819580078125	-1132.925170898438	608.1618041992188	-592.4302978515625	-1055.876708984375	510.3838500976563	-586.606689453125	-1197.833129882812	534.8176879882812	-582.5183715820312	-1088.626953125	266.8497314453126	-587.3451538085938	-981.3507080078125	217.0395812988282	-562.3265380859375	-1116.62646484375	176.6959838867188	-582.4454956054688	-981.8302612304688	44.95505142211917	-500.2566833496094	-1123.359985351562	41.76421737670902	-570.5956420898438	-1147.940673828125	432.9272766113281	-268.7454528808594	-1163.378662109375	421.6177368164062	-368.0666809082031	-994.1820068359375	49.61647033691408	-304.6755065917969	-1044.756225585938	47.17643737792971	-356.8990783691406	-1164.300048828125	424.6278381347657	-466.1389770507812	-1164.586181640625	440.2111816406251	-568.6929321289062	-1062.673217773438	52.90759658813479	-490.7732849121094	-1019.060974121094	47.5931549072266	-552.3251953125	-985.0455932617188	875.6141357421875	-424.3041381835937	-990.7131958007812	875.5836791992188	-423.0675048828124	-983.8086547851562	875.4165649414062	-418.6399536132812	-984.9219360351562	933.5897827148438	-422.3088684082031	-1155.65966796875	427.2724914550781	-318.4060668945312	-1164.443115234375	432.4194946289063	-517.4159545898438	-1019.469116210938	48.3964538574219	-330.7872924804688	-1040.867065429688	50.25037765502933	-521.5491943359375	-1044.756225585938	47.17643737792971	-356.8990783691406	-1062.673217773438	52.90759658813479	-490.7732849121094	-1084.938720703125	611.813232421875	-225.5530700683593	-1117.390502929688	624.7470703125	-602.7076416015625	-1008.991455078125	244.1237945556641	-242.4695281982422	-1039.301025390625	243.8413238525391	-613.6403198242188	0	0	0	0	0	0	0	0	0	0	0	0	-1044.852905273438	783.111328125	-354.8917541503906	-1069.052612304688	786.2435913085938	-468.3169250488281	-0.1220233589410782	-12.31535148620605	1.971304178237914	-0.1220233589410782	12.31535148620605	-1.971304178237914	0.1855801790952682	-43.83218002319336	-13.136794090271	1.319225430488586	-26.42294120788574	-9.030456542968752	18.3918342590332	5.897121429443359	3.69287657737732	13.38426494598389	-10.15432834625244	8.747387886047363	37.68523788452148	-34.06804656982422	-2.27725672721863	32.969970703125	-30.85867118835449	-7.112828731536867	15.26276588439941	-2.524183511734009	-1.261322855949402	14.61481666564941	5.289585590362549	0.443833559751511	-1.739365878272251e-16	-2.955525949710627e-31	4.82674016993043e-15	-4.17447821373252e-15	9.783285802281872e-31	-1.597731820977832e-14	15.06539440155029	0	0	14.51941776275635	0	0	-12.13454151153564	7.855627536773682	0.4587618112564092	-12.13454151153564	-7.855627536773682	-0.4587618112564092	3.877965927124023	5.895233631134033	-3.04681658744812	3.877965927124023	-5.895233631134033	3.04681658744812	-9.527063369750977	-11.60893249511719	-18.9760627746582	38.49149703979492	-1.125916308970798e-12	-6.89424901944445e-29	16.1566276550293	128.6183776855469	12.61855125427247	-8.577301025390625	0.3325859308242813	-24.5674877166748	36.20679092407227	2.467315197637876e-12	-3.975693398235377e-16	19.19993209838867	132.3336334228516	0.07479885965586519	4.072421073913574	6.473828315734863	0.6209172606468205	4.072421073913574	-6.473828315734863	-0.6209172606468205	8.047508239746094	-1.384968042373657	-0.1317577064037324	8.047508239746094	1.384968042373657	0.1317577064037324	0	0	0	0	0	0	0	0	0	0	0	0	0	0	0	0	0	0	
39	0.2533333333333334	-1131.875244140625	1441.01953125	-383.0496826171874	-992.8965454101562	1420.8203125	-363.056182861328	-1139.13818359375	1441.756225585938	-499.0284729003905	-987.09423828125	1420.829467773438	-511.9397583007811	-963.7592163085938	1274.453002929688	-443.2156066894531	-914.5108032226562	1095.19580078125	-445.2375183105468	-1094.678100585938	1213.117065429688	-427.2024841308593	-1127.309326171875	1160.242797851562	-422.6435546874999	-933.2473754882812	1177.671752929688	-542.2299804687499	-1036.590087890625	1263.123168945312	-311.2641906738281	-975.4733276367188	1045.66650390625	-218.4257049560546	-965.73046875	972.0152587890625	-190.3118743896484	-980.5418090820312	889.4874267578125	-146.4824829101562	-1024.865112304688	769.3819580078125	-90.66621398925777	-1082.827392578125	775.6231079101562	-124.8628768920898	-1111.960693359375	717.8362426757812	-78.49612426757808	-1061.162719726562	1251.979370117188	-559.4559936523436	-1053.052490234375	1078.337524414062	-649.5509033203124	-1031.786865234375	959.8453979492188	-703.8442993164061	-1092.886962890625	831.7332763671875	-757.299560546875	-1105.28857421875	751.7540893554688	-777.6163940429688	-1148.2548828125	748.0899047851562	-725.748291015625	-1189.906860351562	701.7811279296875	-771.8253173828125	-916.2161865234375	875.6387939453125	-430.4988708496093	-1071.817749023438	870.7484741210938	-278.2833862304687	-1124.831420898438	879.1908569335938	-521.0014038085938	-1127.9423828125	586.1351928710938	-243.9488830566406	-1079.05224609375	474.4713745117188	-232.0112762451172	-1202.8642578125	531.71875	-277.2154846191406	-1033.176025390625	217.1894683837891	-282.7825927734375	-950.3612060546875	148.3055725097657	-342.0720825195312	-1062.408569335938	131.8782653808594	-254.5008239746094	-973.6182861328125	41.73718261718752	-367.7208251953125	-1083.318359375	41.37443923950197	-262.3864440917969	-1132.887084960938	608.135498046875	-592.4982299804688	-1055.842895507812	510.3398132324219	-586.652587890625	-1197.793334960938	534.8090209960938	-582.5753173828125	-1088.63623046875	266.8336486816407	-587.3734741210938	-981.371826171875	217.0116271972657	-562.3701782226562	-1116.633911132812	176.6798400878907	-582.46728515625	-981.8295288085938	44.952018737793	-500.2595825195312	-1123.359497070312	41.760856628418	-570.5953979492188	-1147.888671875	432.9185180664062	-268.7823181152344	-1163.383056640625	421.6178588867188	-368.0811157226562	-994.1827392578125	49.61383438110354	-304.6868286132812	-1044.761108398438	47.17594146728518	-356.9077758789062	-1164.3076171875	424.6239929199219	-466.1887817382812	-1164.575439453125	440.1943969726563	-568.737060546875	-1062.665649414062	52.90041732788089	-490.7737731933594	-1019.049438476562	47.5889930725098	-552.3218383789062	-984.9737548828125	875.5760498046875	-424.3791198730468	-990.641357421875	875.5457153320312	-423.1423034667968	-983.7366333007812	875.3790283203125	-418.7149658203124	-984.8497924804688	933.5519409179688	-422.3895874023437	-1155.635864257812	427.2681884765625	-318.4317016601562	-1164.441528320312	432.4092102050782	-517.462890625	-1019.471862792969	48.39488983154299	-330.7973022460938	-1040.857543945312	50.24470520019534	-521.5477905273438	-1044.761108398438	47.17594146728518	-356.9077758789062	-1062.665649414062	52.90041732788089	-490.7737731933594	-1084.82666015625	611.7850341796875	-225.6072540283203	-1117.334716796875	624.7118530273438	-602.7589721679688	-1008.978576660156	244.1210632324219	-242.4944610595703	-1039.286987304688	243.8256530761719	-613.6566772460938	0	0	0	0	0	0	0	0	0	0	0	0	-1044.778686523438	783.080810546875	-354.9544677734374	-1068.9833984375	786.2015380859375	-468.3788757324218	-0.1226151585578918	-12.3178768157959	1.965343832969665	-0.1226151585578918	12.3178768157959	-1.965343832969665	0.1723067760467529	-43.83467483520508	-13.14647197723389	1.316705942153931	-26.42120742797852	-9.025962829589846	18.39963340759277	5.865608692169189	3.690509557723999	13.39394378662109	-10.16500854492188	8.753997802734375	37.69180679321289	-34.0433349609375	-2.25941061973572	32.98407745361328	-30.85321426391602	-7.112200736999513	15.26761913299561	-2.524568557739258	-1.261848449707031	14.62180042266846	5.295555591583252	0.4456146359443668	7.702905975627583e-16	1.590277359294755e-15	-7.019583321253856e-16	3.975693398236888e-16	-1.590277359294755e-15	5.963540229704229e-16	15.069016456604	0	0	14.52367687225342	0	0	-12.1495189666748	7.854209423065186	0.4471927583217626	-12.1495189666748	-7.854209423065186	-0.4471927583217626	3.9004807472229	5.891917705535889	-3.047504663467407	3.9004807472229	-5.891917705535889	3.047504663467407	-9.516790390014648	-11.60251331329346	-18.97745323181152	38.48871612548828	1.331062105154601e-12	7.951386796474591e-16	16.16649627685547	128.6091003417969	12.61587810516358	-8.559340476989746	0.3362389206886306	-24.57920265197754	36.21282196044922	-2.117454215438963e-12	-3.18055471858964e-15	19.20717239379883	132.3036804199219	0.05137329176069116	4.094547748565674	6.480379104614258	0.6245756149291997	4.094547748565674	-6.480379104614258	-0.6245756149291997	8.040729522705078	-1.380346298217773	-0.1155612766742707	8.040729522705078	1.380346298217773	0.1155612766742707	0	0	0	0	0	0	0	0	0	0	0	0	0	0	0	0	0	0	
40	0.26	-1131.935424804688	1440.986450195312	-383.1091003417968	-992.9489135742188	1420.8173828125	-363.1321716308593	-1139.213989257812	1441.694458007812	-499.0979003906249	-987.1533813476562	1420.787109375	-512.0018920898436	-963.8233032226562	1274.43408203125	-443.2763671874999	-914.4998168945312	1095.205810546875	-445.2925415039062	-1094.692504882812	1213.069213867188	-427.2525939941406	-1127.313842773438	1160.177490234375	-422.6874084472656	-933.2462158203125	1177.666259765625	-542.2760620117186	-1036.634521484375	1263.095825195312	-311.3140869140624	-975.459228515625	1045.66845703125	-218.4563446044921	-965.6914672851562	972.009765625	-190.3419952392578	-980.4818725585938	889.492431640625	-146.5032501220703	-1024.763793945312	769.3736572265625	-90.68037414550777	-1082.73486328125	775.6119384765625	-124.8751449584961	-1111.850708007812	717.8240966796875	-78.49931335449214	-1061.172607421875	1251.931396484375	-559.4937133789061	-1053.05126953125	1078.306640625	-649.5996093749999	-1031.797241210938	959.8097534179688	-703.9129028320311	-1092.9228515625	831.6993408203125	-757.351806640625	-1105.302856445312	751.7313232421875	-777.6627807617188	-1148.292724609375	748.0648803710938	-725.7904663085938	-1189.954345703125	701.769287109375	-771.8839111328125	-916.1585083007812	875.593017578125	-430.5771179199218	-1071.74072265625	870.7296752929688	-278.3518981933593	-1124.761474609375	879.142578125	-521.0810546875	-1127.887573242188	586.1376953125	-243.9750671386718	-1079.027587890625	474.4671630859375	-232.0197448730468	-1202.821411132812	531.7254638671875	-277.2234497070312	-1033.162353515625	217.1903839111328	-282.7934265136719	-950.359375	148.2965545654297	-342.08447265625	-1062.397705078125	131.8789825439453	-254.5052185058594	-973.611572265625	41.73186874389651	-367.7222900390625	-1083.32080078125	41.38419342041017	-262.3885803222656	-1132.840576171875	608.11376953125	-592.5687255859375	-1055.8046875	510.2995910644532	-586.6951293945312	-1197.749633789062	534.8026123046875	-582.6370239257812	-1088.639892578125	266.8197937011719	-587.402587890625	-981.3853149414062	216.9898834228516	-562.4032592773438	-1116.636840820312	176.6659240722657	-582.4904174804688	-981.8287353515625	44.94898223876956	-500.2616882324219	-1123.3603515625	41.75857543945316	-570.59521484375	-1147.798828125	432.8955383300781	-268.8274230957031	-1163.391357421875	421.6158142089844	-368.08984375	-994.1828002929688	49.61138534545901	-304.6918029785156	-1044.765991210938	47.17631530761721	-356.9129333496094	-1164.306762695312	424.6247558593751	-466.240234375	-1164.553955078125	440.1822204589844	-568.7860717773438	-1062.660034179688	52.89526367187503	-490.7745971679688	-1019.035461425781	47.58501434326175	-552.3187255859375	-984.900634765625	875.5341186523438	-424.4556274414062	-990.5681762695312	875.5042724609375	-423.2186889648437	-983.6633911132812	875.3378295898438	-418.7914733886718	-984.773681640625	933.51025390625	-422.4741821289062	-1155.595092773438	427.2556762695312	-318.4586486816406	-1164.430419921875	432.4034729003907	-517.51318359375	-1019.474365234375	48.39384841918947	-330.8023681640625	-1040.847778320312	50.24013900756839	-521.5466918945312	-1044.765991210938	47.17631530761721	-356.9129333496094	-1062.660034179688	52.89526367187503	-490.7745971679688	-1084.660400390625	611.738037109375	-225.6673889160156	-1117.271850585938	624.6777954101562	-602.809814453125	-1008.961059570312	244.1123962402344	-242.5189208984375	-1039.263549804688	243.8119354248047	-613.6720581054688	0	0	0	0	0	0	0	0	0	0	0	0	-1044.70849609375	783.0508422851562	-355.0174560546874	-1068.915405273438	786.1575317382812	-468.4417724609374	-0.1252292990684509	-12.31904792785645	1.95772898197174	-0.1252292990684509	12.31904792785645	-1.95772898197174	0.1629856377840042	-43.83601760864258	-13.15203762054444	1.314018249511719	-26.41896057128906	-9.020292282104494	18.40158462524414	5.806560516357422	3.688024282455445	13.40011310577393	-10.17555713653564	8.761674880981445	37.69381713867188	-33.99736022949219	-2.225535392761233	32.99558258056641	-30.84921836853027	-7.111735343933107	15.26806831359863	-2.52399468421936	-1.261730909347534	14.62801933288574	5.304882526397705	0.4482502639293674	9.193790900704742e-16	1.590277359294755e-15	-2.696017144409213e-15	0	1.590277359294755e-15	4.050237538611627e-15	15.06829357147217	0	0	14.52737140655518	0	0	-12.1603832244873	7.853695392608643	0.4354256391525274	-12.1603832244873	-7.853695392608643	-0.4354256391525274	3.924318075180054	5.88921070098877	-3.04584002494812	3.924318075180054	-5.88921070098877	3.04584002494812	-9.509001731872559	-11.6034984588623	-18.978515625	38.48830795288086	-1.658659212581959e-12	7.95138679647276e-16	16.17215538024902	128.6005096435547	12.61363410949708	-8.542044639587402	0.3438024520874038	-24.59104347229004	36.22084045410156	-2.976999289444615e-12	-3.975693557055748e-15	19.21155738830566	132.2838897705078	0.02678595297039365	4.115613460540771	6.484949588775635	0.6275424361228947	4.115613460540771	-6.484949588775635	-0.6275424361228947	8.030866622924805	-1.378457069396973	-0.1003531962633134	8.030866622924805	1.378457069396973	0.1003531962633134	0	0	0	0	0	0	0	0	0	0	0	0	0	0	0	0	0	0	
41	0.2666666666666667	-1132.001831054688	1440.952514648438	-383.1701049804686	-993.0086059570312	1420.817626953125	-363.2077026367186	-1139.29541015625	1441.633666992188	-499.1698913574218	-987.2118530273438	1420.75244140625	-512.0593261718749	-963.8811645507812	1274.420654296875	-443.3326110839843	-914.4912109375	1095.220092773438	-445.3486022949218	-1094.711791992188	1213.0185546875	-427.3063049316406	-1127.32177734375	1160.106811523438	-422.7349853515624	-933.2521362304688	1177.669555664062	-542.3245849609374	-1036.6787109375	1263.06787109375	-311.3672180175781	-975.4496459960938	1045.667724609375	-218.4913635253906	-965.6361694335938	972.0165405273438	-190.3689422607421	-980.4174194335938	889.493896484375	-146.5199737548828	-1024.66455078125	769.36962890625	-90.68491363525386	-1082.640991210938	775.6026611328125	-124.8794708251953	-1111.738891601562	717.8123779296875	-78.49005889892574	-1061.184204101562	1251.887817382812	-559.5270996093749	-1053.0595703125	1078.279907226562	-649.6489868164061	-1031.809448242188	959.7767333984375	-703.9804077148436	-1092.9765625	831.6705932617188	-757.4071044921875	-1105.34423828125	751.7092895507812	-777.7145385742188	-1148.330688476562	748.0389404296875	-725.8291015625	-1190.007690429688	701.7595825195312	-771.9326782226562	-916.1065063476562	875.5448608398438	-430.6496582031249	-1071.665283203125	870.7156372070312	-278.4199218749999	-1124.688354492188	879.0955810546875	-521.1653442382812	-1127.83056640625	586.1414184570312	-243.9921264648437	-1078.994506835938	474.4641723632812	-232.0210876464843	-1202.776000976562	531.7304077148438	-277.2210998535156	-1033.148071289062	217.1906890869141	-282.7929077148438	-950.3572387695312	148.2891082763672	-342.0890197753906	-1062.389770507812	131.8778076171875	-254.5067291259766	-973.6041259765625	41.72998809814455	-367.7199096679688	-1083.32275390625	41.3905487060547	-262.388916015625	-1132.785522460938	608.0968627929688	-592.6411743164062	-1055.76318359375	510.2642517089844	-586.73388671875	-1197.701904296875	534.798828125	-582.7063598632812	-1088.638916015625	266.8089599609376	-587.4326782226562	-981.3916625976562	216.9745178222657	-562.4281005859375	-1116.635009765625	176.6538848876953	-582.5132446289062	-981.8277587890625	44.94618225097659	-500.2630920410156	-1123.362060546875	41.75738906860355	-570.5956420898438	-1147.7255859375	432.8844604492188	-268.8525695800781	-1163.386962890625	421.6129760742188	-368.0887451171875	-994.183837890625	49.60993576049807	-304.6908874511719	-1044.7705078125	47.17740249633791	-356.9150390625	-1164.297973632812	424.6283874511719	-466.2924499511719	-1164.5224609375	440.1745910644532	-568.840087890625	-1062.65673828125	52.89274597167972	-490.7758178710938	-1019.021301269531	47.58139801025394	-552.31689453125	-984.826416015625	875.4918212890625	-424.5317077636718	-990.4939575195312	875.4625244140625	-423.2947387695312	-983.5891723632812	875.2963256835938	-418.8675231933593	-984.6956176757812	933.46826171875	-422.5592041015624	-1155.556274414062	427.2487182617188	-318.4706420898438	-1164.410278320312	432.4014892578126	-517.5662841796875	-1019.477111816406	48.39366912841799	-330.802978515625	-1040.839111328125	50.23707199096683	-521.54638671875	-1044.7705078125	47.17740249633791	-356.9150390625	-1062.65673828125	52.89274597167972	-490.7758178710938	-1084.529663085938	611.7101440429688	-225.7164306640625	-1117.202514648438	624.6463623046875	-602.8604736328125	-1008.9462890625	244.1038055419922	-242.5299682617187	-1039.234497070312	243.7992401123047	-613.6878662109375	0	0	0	0	0	0	0	0	0	0	0	0	-1044.640625	783.0234375	-355.0794372558593	-1068.84716796875	786.1144409179688	-468.5042724609374	-0.1292662471532822	-12.31894683837891	1.948945403099059	-0.1292662471532822	12.31894683837891	-1.948945403099059	0.157306507229805	-43.83668899536133	-13.15361881256104	1.311528563499451	-26.41672897338867	-9.013477325439455	18.40231323242188	5.76459789276123	3.687262296676636	13.40353393554688	-10.18579387664795	8.770188331604004	37.69579696655273	-33.96238327026367	-2.206155300140383	33.00452423095703	-30.84528732299805	-7.11154365539551	15.26713752746582	-2.524250268936157	-1.261720061302185	14.63292407989502	5.315468788146973	0.4511749744415287	-8.945309550462957e-16	-3.18055471858951e-15	-9.352197496786084e-15	-1.987846699118444e-16	1.590277359294755e-15	1.242404236579865e-16	15.0664529800415	0	0	14.53030872344971	0	0	-12.16719627380371	7.853076457977295	0.4235703647136693	-12.16719627380371	-7.853076457977295	-0.4235703647136693	3.948163032531738	5.887351989746094	-3.041426420211792	3.948163032531738	-5.887351989746094	3.041426420211792	-9.507527351379395	-11.60097885131836	-18.9830322265625	38.49420928955078	-2.372693838278983e-12	-1.452855957202502e-28	16.1733570098877	128.5909271240234	12.60675048828126	-8.525243759155273	0.351853877305986	-24.60143852233887	36.23008728027344	3.657638021669143e-14	2.239657347838387e-30	19.2127513885498	132.2818756103516	0.009317156858750337	4.134859561920166	6.487304210662842	0.6291031241416936	4.134859561920166	-6.487304210662842	-0.6291031241416936	8.018746376037598	-1.378364205360413	-0.08677954226732262	8.018746376037598	1.378364205360413	0.08677954226732262	0	0	0	0	0	0	0	0	0	0	0	0	0	0	0	0	0	0	
